<svg width="46" height="50" viewBox="0 0 46 50" fill="none" xmlns="http://www.w3.org/2000/svg">
<path d="M19.6121 1.25C22.5887 1.25 25.1358 2.30479 27.2429 4.41113C29.3501 6.51869 30.405 9.06574 30.405 12.042C30.405 15.0195 29.3494 17.566 27.2429 19.6729C25.1358 21.78 22.5892 22.835 19.6121 22.835C16.6358 22.835 14.0889 21.7795 11.9812 19.6729H11.9802C9.87396 17.5662 8.81909 15.0191 8.81909 12.042C8.81915 9.06548 9.87454 6.51886 11.9812 4.41211C14.088 2.30535 16.6345 1.25001 19.6121 1.25Z" stroke="#3BB6DD" stroke-width="2.5"/>
<path d="M36.9683 33.1665C38.9752 33.1665 40.7028 33.8303 42.1597 35.1616L42.4478 35.437C43.9632 36.9529 44.7183 38.7761 44.7183 40.9165C44.7182 43.0578 43.9628 44.8807 42.4478 46.396C40.9323 47.9115 39.1093 48.6665 36.9683 48.6665C34.9618 48.6665 33.2341 48.0027 31.7769 46.6714L31.4888 46.396C29.9736 44.8808 29.2183 43.0578 29.2183 40.9165C29.2183 38.7757 29.9735 36.9523 31.4888 35.437C33.004 33.9217 34.8269 33.1665 36.9683 33.1665Z" stroke="#3BB6DD" stroke-width="2.5"/>
<path d="M35.6483 28.5138C35.2253 27.7691 34.7385 27.1309 34.2014 26.6171C33.699 26.1364 33.0657 25.7424 32.32 25.4471C31.6295 25.174 30.854 25.0245 30.0117 25.002C29.9091 25.0565 29.7264 25.161 29.4303 25.3537C28.828 25.7466 28.1532 26.1815 27.3677 26.6835C26.5014 27.2358 25.3871 27.7337 24.0543 28.1643C22.6936 28.6042 21.3047 28.8277 19.9264 28.8277C18.5482 28.8277 17.1596 28.6042 15.7981 28.164C14.4664 27.734 13.3518 27.2358 12.4866 26.6842C11.7191 26.194 11.0248 25.7462 10.4225 25.3537C10.1264 25.1606 9.94373 25.0565 9.84111 25.002C8.99921 25.0245 8.22368 25.174 7.5336 25.4471C6.78745 25.7424 6.15421 26.1361 5.65181 26.6171C5.1147 27.1313 4.62794 27.7695 4.2049 28.5134C3.76163 29.2939 3.40419 30.1041 3.14212 30.9224C2.86899 31.7757 2.63934 32.7183 2.45891 33.7227C2.27618 34.7397 2.15297 35.6968 2.0927 36.5681C2.0309 37.4562 2 38.3812 2 39.3181C2 41.1194 2.50888 42.4801 3.55602 43.4769C4.62337 44.4928 6.04091 44.9868 7.88989 44.9868C7.88989 44.9868 18.9083 44.9868 25.9684 44.9868" stroke="#3BB6DD" stroke-width="2.5" stroke-linecap="round" stroke-linejoin="round"/>
<path d="M36.9683 37.9165V43.9165" stroke="#3BB6DD" stroke-width="2.5" stroke-linecap="round" stroke-linejoin="round"/>
<path d="M33.9683 40.9165H39.9683" stroke="#3BB6DD" stroke-width="2.5" stroke-linecap="round" stroke-linejoin="round"/>
</svg>
