<svg width="41" height="41" viewBox="0 0 41 41" fill="none" xmlns="http://www.w3.org/2000/svg">
<path d="M36.4132 15.0037L24.1965 2.78696C23.6396 2.23379 22.8865 1.92334 22.1016 1.92334C21.3167 1.92334 20.5636 2.23379 20.0068 2.78696L16.0477 6.74602C15.9708 6.82255 15.9145 6.91737 15.8843 7.02158C15.854 7.12579 15.8507 7.23597 15.8747 7.3418C15.8993 7.4477 15.9504 7.5456 16.0233 7.6263C16.0961 7.70699 16.1883 7.76782 16.2911 7.80305C16.5118 7.88655 16.7126 8.0153 16.8805 8.18102L24.5296 15.8301C24.5894 15.8895 24.6604 15.9364 24.7385 15.9683C24.8165 16.0002 24.9001 16.0164 24.9844 16.0159H35.2344C35.4264 16.0132 35.618 16.0347 35.8046 16.0799C35.8556 16.0861 35.9073 16.0861 35.9583 16.0799C36.0856 16.0807 36.2102 16.0435 36.3162 15.9732C36.4222 15.9028 36.5049 15.8025 36.5537 15.685C36.6025 15.5675 36.6152 15.4381 36.5902 15.3133C36.5651 15.1885 36.5035 15.0741 36.4132 14.9845V15.0037Z" fill="url(#paint0_linear_385_1402)"/>
<path d="M25.4393 14.9202L17.7902 7.27115C17.4904 6.98416 17.132 6.7656 16.7396 6.63053C16.2099 6.42558 15.6326 6.37701 15.0761 6.49057C14.5197 6.60413 14.0075 6.87506 13.6005 7.27115L5.95147 14.9202C5.86257 15.0103 5.80236 15.1247 5.77841 15.249C5.75447 15.3733 5.76788 15.5018 5.81693 15.6185C5.86499 15.7355 5.94661 15.8356 6.05149 15.9063C6.15637 15.977 6.27983 16.0151 6.40631 16.0157H24.9844C25.1109 16.0151 25.2344 15.977 25.3393 15.9063C25.4441 15.8356 25.5257 15.7355 25.5738 15.6185C25.6229 15.5018 25.6363 15.3733 25.6123 15.249C25.5884 15.1247 25.5282 15.0103 25.4393 14.9202Z" fill="url(#paint1_linear_385_1402)"/>
<path d="M34.5938 14.7344H7.04688C6.36726 14.7344 5.71548 15.0044 5.23491 15.4849C4.75435 15.9655 4.48438 16.6173 4.48438 17.2969V36.5156C4.48438 37.1952 4.75435 37.847 5.23491 38.3276C5.71548 38.8081 6.36726 39.0781 7.04688 39.0781H34.5938C35.6132 39.0781 36.5909 38.6732 37.3117 37.9523C38.0325 37.2315 38.4375 36.2538 38.4375 35.2344V18.5781C38.4375 17.5587 38.0325 16.581 37.3117 15.8602C36.5909 15.1393 35.6132 14.7344 34.5938 14.7344Z" fill="#0E695F"/>
<path d="M35.2344 18.5781V35.2344C35.2345 36.2417 34.8393 37.2089 34.1336 37.9277C33.4279 38.6466 32.4683 39.0597 31.4611 39.0781H4.43313C3.76243 39.0647 3.12374 38.7888 2.6542 38.3097C2.18467 37.8306 1.92174 37.1865 1.92188 36.5156V17.2969C1.92174 16.626 2.18467 15.9819 2.6542 15.5028C3.12374 15.0237 3.76243 14.7478 4.43313 14.7344H31.4611C32.4683 14.7528 33.4279 15.1659 34.1336 15.8848C34.8393 16.6036 35.2345 17.5708 35.2344 18.5781Z" fill="#3AB0A2"/>
<path d="M38.4375 23.0625H33.3125C32.463 23.0625 31.6483 23.4 31.0475 24.0007C30.4468 24.6014 30.1094 25.4161 30.1094 26.2656V27.5469C30.1094 27.9675 30.1922 28.384 30.3532 28.7727C30.5142 29.1613 30.7501 29.5144 31.0475 29.8118C31.345 30.1093 31.6981 30.3452 32.0867 30.5062C32.4753 30.6671 32.8919 30.75 33.3125 30.75H38.4375C38.6074 30.75 38.7704 30.6825 38.8905 30.5624C39.0106 30.4422 39.0781 30.2793 39.0781 30.1094V23.7031C39.0781 23.5332 39.0106 23.3703 38.8905 23.2501C38.7704 23.13 38.6074 23.0625 38.4375 23.0625Z" fill="#0E695F"/>
<path d="M19.8594 17.2969H14.7344C14.2247 17.2969 13.7358 17.4994 13.3754 17.8598C13.015 18.2202 12.8125 18.709 12.8125 19.2188V20.5C12.8125 21.0097 13.015 21.4985 13.3754 21.859C13.7358 22.2194 14.2247 22.4219 14.7344 22.4219H19.8594C20.3691 22.4219 20.8579 22.2194 21.2183 21.859C21.5788 21.4985 21.7812 21.0097 21.7812 20.5V19.2188C21.7812 18.709 21.5788 18.2202 21.2183 17.8598C20.8579 17.4994 20.3691 17.2969 19.8594 17.2969ZM20.5 20.5C20.5 20.6699 20.4325 20.8329 20.3124 20.953C20.1922 21.0731 20.0293 21.1406 19.8594 21.1406H14.7344C14.5645 21.1406 14.4015 21.0731 14.2814 20.953C14.1612 20.8329 14.0938 20.6699 14.0938 20.5V19.2188C14.0938 19.0488 14.1612 18.8859 14.2814 18.7658C14.4015 18.6456 14.5645 18.5781 14.7344 18.5781H19.8594C20.0293 18.5781 20.1922 18.6456 20.3124 18.7658C20.4325 18.8859 20.5 19.0488 20.5 19.2188V20.5Z" fill="#D7E9F7"/>
<path d="M34.5938 28.1875C35.3014 28.1875 35.875 27.6139 35.875 26.9062C35.875 26.1986 35.3014 25.625 34.5938 25.625C33.8861 25.625 33.3125 26.1986 33.3125 26.9062C33.3125 27.6139 33.8861 28.1875 34.5938 28.1875Z" fill="#D7E9F7"/>
<path d="M6.40625 14.7344H7.6875V39.0781H6.40625V14.7344ZM8.96875 14.7344H10.25V39.0781H8.96875V14.7344Z" fill="#D7E9F7"/>
<defs>
<linearGradient id="paint0_linear_385_1402" x1="22.9793" y1="14.5809" x2="29.4816" y2="8.07852" gradientUnits="userSpaceOnUse">
<stop stop-color="#0E695F"/>
<stop offset="1" stop-color="#3AB0A2"/>
</linearGradient>
<linearGradient id="paint1_linear_385_1402" x1="15.6954" y1="6.43066" x2="15.6954" y2="16.0157" gradientUnits="userSpaceOnUse">
<stop stop-color="#3AB0A2"/>
<stop offset="1" stop-color="#0E695F"/>
</linearGradient>
</defs>
</svg>
