<svg xmlns="http://www.w3.org/2000/svg" viewBox="0 0 1440 320">
  <defs>
    <linearGradient id="greenGradient" x1="0" y1="0" x2="1" y2="1">
      <stop offset="0%" stop-color="#4ade80"></stop> <!-- hijau muda -->
      <stop offset="100%" stop-color="#166534"></stop> <!-- hijau tua -->
    </linearGradient>
  </defs>
  <path fill="url(#greenGradient)" fill-opacity="1" d="M0,128L48,122.7C96,117,192,107,288,138.7C384,171,480,245,576,245.3C672,245,768,171,864,160C960,149,1056,203,1152,224C1248,245,1344,235,1392,229.3L1440,224L1440,320L1392,320C1344,320,1248,320,1152,320C1056,320,960,320,864,320C768,320,672,320,576,320C480,320,384,320,288,320C192,320,96,320,48,320L0,320Z"></path>
</svg>
